# xmcd
#
# Track frame offsets:
#	150
#	11869
#	23720
#	44773
#	57251
#	71798
#	89684
#	103861
#	116769
#	130736
#	146231
#	157976
#
# Disc length: 2298 seconds
#
# Revision: 1
# Processed by: cddbd v1.5.1PL0 Copyright (c) Steve Scherf et al.
# Submitted via: audiograbber 1.82.02
#
DISCID=b308f80c
DTITLE=Patsy Riggir - Greatest Hits CD 2
DYEAR=1900
DGENRE=
TTITLE0=Dear Hearts and Gentle People
TTITLE1=My Happiness
TTITLE2=Silver Threads Among The Gold
TTITLE3=Mockingbird Hill
TTITLE4=Laying It On The Line
TTITLE5=Let The Rest Of The World Go
TTITLE6=Paper Roses
TTITLE7=Call On Me
TTITLE8=Secret Love
TTITLE9=Pardon Me
TTITLE10=Dark Moon
TTITLE11=You Remind Me Of A love Song
EXTD=
EXTT0=
EXTT1=
EXTT2=
EXTT3=
EXTT4=
EXTT5=
EXTT6=
EXTT7=
EXTT8=
EXTT9=
EXTT10=
EXTT11=
PLAYORDER=
